HIERARCHY
ROOT ui
{
	 OFFSET 0 0 0
	 CHANNELS 3 XPosition YPosition Z Position
	 EndSite
	 {
	 OFFSET 0 -1 0
	 }
}
ROOT li
{
	 OFFSET 0 0 0
	 CHANNELS 3 XPosition YPosition Z Position
	 EndSite
	 {
	 OFFSET 0 -1 0
	 }
}
ROOT ul
{
	 OFFSET 0 0 0
	 CHANNELS 3 XPosition YPosition Z Position
	 EndSite
	 {
	 OFFSET 0 -1 0
	 }
}
ROOT ll
{
	 OFFSET 0 0 0
	 CHANNELS 3 XPosition YPosition Z Position
	 EndSite
	 {
	 OFFSET 0 -1 0
	 }
}
ROOT tt
{
	 OFFSET 0 0 0
	 CHANNELS 3 XPosition YPosition Z Position
	 EndSite
	 {
	 OFFSET 0 -1 0
	 }
}
ROOT tb
{
	 OFFSET 0 0 0
	 CHANNELS 3 XPosition YPosition Z Position
	 EndSite
	 {
	 OFFSET 0 -1 0
	 }
}
ROOT td
{
	 OFFSET 0 0 0
	 CHANNELS 3 XPosition YPosition Z Position
	 EndSite
	 {
	 OFFSET 0 -1 0
	 }
}
ROOT v
{
	 OFFSET 0 0 0
	 CHANNELS 3 XPosition YPosition Z Position
	 EndSite
	 {
	 OFFSET 0 -1 0
	 }
}
ROOT bn
{
	 OFFSET 0 0 0
	 CHANNELS 3 XPosition YPosition Z Position
	 EndSite
	 {
	 OFFSET 0 -1 0
	 }
}
MOTION
Frames: 24
Frame Time: 0.002
1.1428999714553356E-5	-7.383610010147095E-4	0		0.5016954956054688	-2.307931884765625	0		-1.1732117919921874	-0.01686982727050781	0		-0.7260526733398438	-2.47451953125	0		1.3530150146484374	-0.5014521484375	0		2.963335205078125	0.01628291702270508	0		4.613859375	0.158592041015625	0		5.6212255859375	0.1727666778564453	0		-0.4639298095703125	5.83925390625	0		
-0.004918336868286133	0.004160473823547364	0		0.4504580078125	-2.300633056640625	0		-1.1591756591796876	-0.014997629165649414	0		-0.76033544921875	-2.469218994140625	0		1.359033447265625	-0.49486019897460937	0		2.98841650390625	0.021449182510375978	0		4.63187939453125	0.155593994140625	0		5.62542333984375	0.15199652099609376	0		-0.4679199523925781	5.85421875	0		
-0.0018721259832382203	0.00697447395324707	0		0.48115652465820313	-2.2991767578125	0		-1.161069580078125	-0.005963771820068359	0		-0.7566392211914063	-2.465305419921875	0		1.362017333984375	-0.49124496459960937	0		2.963373291015625	0.015118966102600098	0		4.62106298828125	0.16887759399414062	0		5.628330078125	0.16409959411621095	0		-0.43299197387695315	5.85977734375	0		
5.322299897670746E-5	-0.0012015509605407715	0		0.480833251953125	-2.29940185546875	0		-1.1610615234375	-0.005951687812805175	0		-0.7230411376953125	-2.470710205078125	0		1.3619552001953126	-0.49159735107421876	0		2.993382568359375	0.014218740463256836	0		4.6280322265625	0.16198089599609375	0		5.6283359375	0.16590547180175783	0		-0.2989224853515625	5.87927978515625	0		
5.522799864411354E-5	-0.0013554799556732178	0		0.52841455078125	-2.3091357421875	0		-1.1651026611328126	-0.009900066375732422	0		-0.7593507080078125	-2.467378173828125	0		1.358845947265625	-0.4959096374511719	0		2.972377197265625	0.012870282173156737	0		4.6180576171875	0.16128591918945312	0		5.6283232421875	0.16429713439941407	0		-0.29908642578125	5.8801787109375	0		
-0.004895774841308593	0.003547795057296753	0		0.47615890502929686	-2.3037939453125	0		-1.1691414794921875	-0.012851958274841308	0		-0.7386749877929687	-2.46665478515625	0		1.35269921875	-0.5031758117675781	0		2.9603310546875	0.008453965187072754	0		4.6280732421875	0.1604120635986328	0		5.6253759765625	0.145535888671875	0		-0.4315279846191406	5.86050830078125	0		
3.659199923276901E-5	-0.0016516380310058593	0		0.5107357482910156	-2.315381591796875	0		-1.16512353515625	-0.009895583152770997	0		-0.797992431640625	-2.466062255859375	0		1.3617432861328125	-0.4925894775390625	0		2.95330859375	0.007015505790710449	0		4.6180810546875	0.15979820251464844	0		5.62535302734375	0.1440882568359375	0		-0.46389501953125	5.8527783203125	0		
0.007092528820037842	0.00513117504119873	0		0.4816490478515625	-2.297260009765625	0		-1.151124267578125	-0.008055697441101075	0		-0.7203021240234375	-2.46697265625	0		1.364709716796875	-0.4889190673828125	0		3.005384765625	0.014960161209106445	0		4.62606689453125	0.15803849792480468	0		5.6311494140625	0.16853924560546876	0		-0.44813201904296873	5.86252587890625	0		
-0.004957384109497071	0.0031324899196624755	0		0.53128857421875	-2.306	0		-1.1611309814453126	-0.005956400871276855	0		-0.75857421875	-2.46560546875	0		1.36158544921875	-0.49315945434570313	0		2.96332666015625	0.011984456062316894	0		4.6211328125	0.16448025512695313	0		5.62820947265625	0.1552802276611328	0		-0.2953590698242187	5.8787421875	0		
-5.093900114297867E-5	-0.0020475521087646486	0		0.4770771484375	-2.3025654296875	0		-1.086184814453125	-0.007818840980529785	0		-0.7269183959960938	-2.473020263671875	0		1.3584581298828124	-0.49737478637695315	0		2.96329052734375	0.011588244438171387	0		4.60906640625	0.16006741333007812	0		5.62106494140625	0.1595704345703125	0		-0.2948572998046875	5.87864453125	0		
-0.005039980888366699	0.002891697883605957	0		0.5007918395996094	-2.307991943359375	0		-1.16526025390625	-0.009954605102539062	0		-0.7631224975585937	-2.469672119140625	0		1.3583731689453125	-0.4975987854003906	0		2.968177001953125	0.005181647777557373	0		4.62800927734375	0.15737232971191406	0		5.62521435546875	0.13946847534179688	0		-0.32365420532226563	5.85988037109375	0		
-1.5146400034427642E-4	-0.0022747929096221925	0		0.47664361572265623	-2.30286181640625	0		-1.161269775390625	-0.00603362512588501	0		-0.7253538818359375	-2.4711650390625	0		1.361331298828125	-0.4938331298828125	0		2.96319189453125	0.010932052612304687	0		4.6210341796875	0.163035888671875	0		5.6216669921875	0.15258291625976564	0		-0.46140362548828123	5.8533662109375	0		
-2.1355700492858886E-4	-0.0023783330917358397	0		0.4784791259765625	-2.301014404296875	0		-1.1613321533203125	-0.006073991775512696	0		-0.7954540405273437	-2.462427734375	0		1.361242431640625	-0.4940107421875	0		2.9671875	0.015621124267578125	0		4.62098095703125	0.16268092346191407	0		5.63444677734375	0.14979641723632814	0		-0.42708062744140624	5.8588974609375	0		
-0.0021899490356445312	0.005546895980834961	0		0.504285400390625	-2.303431396484375	0		-1.16140087890625	-0.006120490074157715	0		-0.723703857421875	-2.46931787109375	0		1.3611524658203125	-0.49416748046875	0		2.96711962890625	0.015394181251525878	0		4.620919921875	0.16238169860839843	0		5.627982421875	0.1511175231933594	0		-0.4268929748535156	5.85881884765625	0		
-3.5566401481628416E-4	-0.0025668070316314695	0		0.4761360168457031	-2.303216552734375	0		-1.1714622802734376	-0.005057225227355957	0		-0.772753662109375	-2.459820068359375	0		1.361062255859375	-0.4943046875	0		2.97503466796875	0.014110551834106446	0		4.62287451171875	0.16411125183105468	0		5.63214013671875	0.13667729187011718	0		-0.3217756652832031	5.85753076171875	0		
-4.325799942016602E-4	-0.0026524250507354735	0		0.49994320678710935	-2.308591064453125	0		-1.1696319580078125	-0.013136674880981445	0		-0.7300671997070313	-2.4753828125	0		1.354892822265625	-0.5013539123535157	0		2.962912841796875	0.010090872764587403	0		4.6177099609375	0.15597044372558594	0		5.62076123046875	0.15564227294921876	0		-0.45693087768554685	5.83901513671875	0		
-0.00545266580581665	0.002324764966964722	0		0.4758871459960938	-2.303402099609375	0		-1.155688232421875	-0.011360353469848632	0		-0.7980651245117187	-2.464664794921875	0		1.3578409423828126	-0.4984910888671875	0		2.967764892578125	0.003905164957046509	0		4.6176337890625	0.15581549072265624	0		5.6320244140625	0.13599952697753906	0		-0.4607640686035156	5.85198779296875	0		
0.011434006690979003	-9.471909999847412E-4	0		0.5126836547851562	-2.3129091796875	0		-1.151731201171875	-0.008472480773925782	0		-0.758154296875	-2.46419677734375	0		1.3638515625	-0.4906477355957031	0		2.978860595703125	0.01867662811279297	0		4.629615234375	0.16056224060058594	0		5.63066552734375	0.1617773895263672	0		-0.42574853515625	5.8555107421875	0		
0.006417578220367432	0.004040068149566651	0		0.47773678588867186	-2.3015751953125	0		-1.1617821044921874	-0.006426084995269776	0		-0.760254150390625	-2.4662431640625	0		1.3607303466796874	-0.49468423461914063	0		2.966740234375	0.014743025779724122	0		4.627482421875	0.15551141357421874	0		5.62771826171875	0.15307818603515624	0		-0.29354898071289065	5.87790966796875	0		
-0.0056758270263671876	0.002113332986831665	0		0.5275958862304687	-2.309216552734375	0		-1.090915771484375	-0.012321095466613769	0		-0.7263697509765625	-2.471707275390625	0		1.3576163330078126	-0.49870648193359374	0		2.951681640625	0.015869519233703614	0		4.6174111328125	0.15559056091308593	0		5.62473291015625	0.1358060302734375	0		-0.3218984069824219	5.85716748046875	0		
-8.013370037078857E-4	-0.0030065569877624513	0		0.4735960693359375	-2.30564794921875	0		-1.16596630859375	-0.010529759407043458	0		-0.7304518432617187	-2.475732177734375	0		1.3545208740234376	-0.5017167358398438	0		2.971531982421875	0.008613655090332031	0		4.62734130859375	0.15547096252441406	0		5.631818359375	0.13561921691894532	0		-0.4562737121582031	5.83765234375	0		
-8.648309707641602E-4	-0.0030664589405059815	0		0.5015714416503906	-2.306022705078125	0		-1.1600877685546875	-0.015679241180419922	0		-0.7623886108398438	-2.46843603515625	0		1.360546630859375	-0.49482241821289064	0		2.966537841796875	0.014663697242736817	0		4.62118310546875	0.14756278991699218	0		5.6275615234375	0.14964434814453126	0		-0.46126699829101564	5.85264111328125	0		
0.0012140769958496093	0.008851236343383789	0		0.4506459045410156	-2.29848291015625	0		-1.152066650390625	-0.008855380058288575	0		-0.758348876953125	-2.46455712890625	0		1.3604979248046876	-0.49485150146484375	0		2.966478271484375	0.01466924285888672	0		4.6202822265625	0.1616146240234375	0		5.627521484375	0.14974996948242186	0		-0.42738568115234377	5.8581806640625	0		
0.003963452100753784	-0.008240053176879883	0		0.5035867614746093	-2.30413916015625	0		-1.162097412109375	-0.0068267440795898434	0		-0.7603657836914063	-2.466610595703125	0		1.3604554443359376	-0.4948760070800781	0		2.96948046875	0.01964940643310547	0		4.62022314453125	0.1616702880859375	0		5.62456689453125	0.1361259002685547	0		-0.29435159301757813	5.8775810546875	0		
